<svg xmlns="http://www.w3.org/2000/svg" width="178" height="151" viewBox="0 0 178 151">
    <g fill="none" fill-rule="evenodd" transform="translate(-1 -15)">
        <path d="M0 0h180v180H0z"/>
        <path fill="#E0F5FC" d="M158.728 70.594h.578c3.952 0 7.156 3.208 7.156 7.148 0 3.948-3.209 7.149-7.156 7.149h-.29 11.631c3.944 0 7.14 3.208 7.14 7.148 0 3.948-3.207 7.148-7.14 7.148H155.107a7.146 7.146 0 0 0-7.152 7.149 7.155 7.155 0 0 0 7.152 7.148h16.369c3.943 0 7.14 3.209 7.14 7.149 0 3.948-3.207 7.148-7.14 7.148H33.47h1.257c3.944 0 7.154-3.2 7.154-7.148 0-3.94-3.203-7.149-7.154-7.149H8.14c-3.944 0-7.141-3.208-7.141-7.148 0-3.948 3.208-7.149 7.14-7.149H23.7h-8.512c-3.946 0-7.144-3.208-7.144-7.148a7.145 7.145 0 0 1 7.144-7.148h31.278c3.947 0 7.156-3.2 7.156-7.149 0-3.94-3.204-7.148-7.156-7.148H24.162c-3.944 0-7.14-3.209-7.14-7.149 0-3.948 3.207-7.148 7.14-7.148H52.3 13.466a7.153 7.153 0 0 1-7.149-7.149A7.145 7.145 0 0 1 13.466 42h147.506a7.153 7.153 0 0 1 7.148 7.148 7.145 7.145 0 0 1-7.148 7.149h-41.39 35.328-3.817a7.145 7.145 0 0 0-7.144 7.148c0 3.94 3.199 7.149 7.144 7.149h7.635zM13.43 134.93a7.151 7.151 0 0 1 7.145-7.149h128.798c3.946 0 7.145 3.209 7.145 7.149a7.151 7.151 0 0 1-7.145 7.148H20.575c-3.946 0-7.145-3.208-7.145-7.148z" opacity=".835"/>
        <g stroke="#8ADAF8" stroke-linecap="round" stroke-width="2">
            <path d="M75.862 56.088l-4.542-3.73m-2.58-2.12l-2.53-2.078" opacity=".643"/>
            <path d="M81.032 45.747l1.034 3.792" opacity=".561"/>
            <path d="M93.786 41.955L92.752 53.33" opacity=".847"/>
            <path d="M107.23 49.194l-4.481 5.515" opacity=".682"/>
        </g>
        <g transform="translate(3.819 12)">
            <circle cx="57.18" cy="18.955" r="1.034" fill="#48D2A0"/>
            <circle cx="96.862" cy="45.122" r="1.034" fill="#8ADAF8"/>
            <circle cx="13.788" cy="29.61" r="2.413" fill="#48D2A0"/>
            <circle cx="21.199" cy="17.029" r="1.551" fill="#48D2A0" opacity=".873"/>
            <g stroke="#48D2A0" stroke-linecap="round" opacity=".424">
                <path d="M49.475 8.357l-6.062-3.089M44.9 9.844l3.088-6.062"/>
            </g>
            <g stroke="#48D2A0" stroke-linecap="round" opacity=".409">
                <path d="M164.521 109.56l1.958 7.305M169.153 112.234l-7.306 1.957"/>
            </g>
            <circle cx="14.305" cy="150.808" r="2.585" fill="#48D2A0" opacity=".935"/>
            <path fill="#48D2A0" d="M1.551 142.329a1.551 1.551 0 1 0 0-3.103 1.551 1.551 0 0 0 0 3.103z" opacity=".669"/>
            <circle cx="134.952" cy="16.684" r="2.585" fill="#48D2A0" opacity=".796"/>
            <circle cx="140.293" cy="25.37" r="1.551" fill="#48D2A0" opacity=".513"/>
            <circle cx="171.829" cy="94.934" r="2.413" fill="#48D2A0" opacity=".607"/>
            <g stroke="#48D2A0" stroke-linecap="round" opacity=".452">
                <path d="M166.225 21.922l3.803-3.192M166.31 18.136l3.191 3.804"/>
            </g>
        </g>
        <circle cx="90.405" cy="90.405" r="59.405" fill="#59ADC5"/>
        <g fill="#FFF" fill-rule="nonzero">
            <path d="M165.482 31.746a5.961 5.961 0 0 0-8.43 0L85.63 103.168 58.177 75.715a5.961 5.961 0 0 0-8.43 8.43l31.668 31.669a5.963 5.963 0 0 0 8.43 0l75.637-75.637a5.961 5.961 0 0 0 0-8.43z"/>
        </g>
    </g>
</svg>
